{"title":"Hero Naam Yaad Rakhi (2015) x264 1 CD PDVDRip AAC[HDMaN ExCluSiv","uid":12114044,"size":734288017,"categoryP":"video","categoryS":"hd___movies","magnet":"?xt=urn:btih:67aebb6bbbec9e58baa5145c6b9db7a2d760d8ff&amp;dn=Hero+Naam+Yaad+Rakhi+%282015%29+x264+1+CD+PDVDRip+AAC%5BHDMaN+ExCluSiv&amp;tr=udp%3A%2F%2Ftracker.openbittorrent.com%3A80&amp;tr=udp%3A%2F%2Fopen.demonii.com%3A1337&amp;tr=udp%3A%2F%2Ftracker.coppersurfer.tk%3A6969&amp;tr=udp%3A%2F%2Fexodus.desync.com%3A6969","seeders":0,"leechers":1,"uploader":"Urmit","files":9,"time":1436642991,"description":"\n\n[size=6][color=blue][b]Hero Naam Yaad Rakhi (2015) x264 1 CD PDVDRip AAC[HDMaN ExCluSive][/b][/color][/size]\n\n[code]Format                      : MPEG-4\nFormat profile              : Base Media\nCodec ID                    : isom\nFile size                   : 700 MiB\nDuration                    : 1h 32mn\nOverall bit rate mode       : Variable\nOverall bit rate            : 1 055 Kbps\n\n\n[ * Video ]\nID                          : 1\nFormat                      : AVC\nFormat/Info                 : Advanced Video Codec\nFormat profile              : &lt;a class=&quot;__cf_email__&quot; href=&quot;/cdn-cgi/l/email-protection&quot; data-cfemail=&quot;672a060e09272b544956&quot;&gt;[email&amp;#160;protected]&lt;/a&gt;&lt;script data-cfhash='f9e31' type=&quot;text/javascript&quot;&gt;\n/* &lt;![CDATA[ */!function(){try{var t=&quot;currentScript&quot;in document?document.currentScript:function(){for(var t=document.getElementsByTagName(&quot;script&quot;),e=t.length;e--;)if(t[e].getAttribute(&quot;data-cfhash&quot;))return t[e]}();if(t&amp;&amp;t.previousSibling){var e,r,n,i,c=t.previousSibling,a=c.getAttribute(&quot;data-cfemail&quot;);if(a){for(e=&quot;&quot;,r=parseInt(a.substr(0,2),16),n=2;a.length-n;n+=2)i=parseInt(a.substr(n,2),16)^r,e+=String.fromCharCode(i);e=document.createTextNode(e),c.parentNode.replaceChild(e,c)}t.parentNode.removeChild(t);}}catch(u){}}()/* ]]&gt; */&lt;/script&gt;\nFormat settings, CABAC      : Yes\nFormat settings, ReFrames   : 3 frames\nCodec ID                    : avc1\nCodec ID/Info               : Advanced Video Coding\nDuration                    : 1h 32mn\nBit rate                    : 986 Kbps\nMaximum bit rate            : 6 589 Kbps\nWidth                       : 640 pixels\nHeight                      : 304 pixels\nDisplay aspect ratio        : 2.105\nFrame rate mode             : Constant\nFrame rate                  : 29.970 fps\nColor space                 : YUV\nChroma subsampling          : 4:2:0\nBit depth                   : 8 bits\nScan type                   : Progressive\nBits/(Pixel*Frame)          : 0.169\nStream size                 : 655 MiB (94%)\nWriting library             : x264 core 146 r2538 121396c\nEncoded date                : UTC 2015-07-11 10:03:16\nTagged date                 : UTC 2015-07-11 12:29:44\nColor primaries             : BT.601 NTSC\nTransfer characteristics    : BT.601\nMatrix coefficients         : BT.601\nColor range                 : Limited\n\n\n[ * Audio ]\nID                          : 2\nFormat                      : AAC\nFormat/Info                 : Advanced Audio Codec\nFormat profile              : LC\nCodec ID                    : 40\nDuration                    : 1h 32mn\nBit rate mode               : Variable\nBit rate                    : 64.0 Kbps\nMaximum bit rate            : 70.4 Kbps\nChannel(s)                  : 2 channels\nChannel positions           : Front: L R\nSampling rate               : 48.0 KHz\nCompression mode            : Lossy\nStream size                 : 42.5 MiB (6%)\nEncoded date                : UTC 2015-07-11 09:25:54\nTagged date                 : UTC 2015-07-11 12:29:44\n\n\nNote: &quot;JPEG&quot; less quality, don't judge by this.[/code]\n\n\n[img]http://i.imgur.com/Er7fP00.png[/img]\n[img]http://i.imgur.com/6uaZedv.png[/img]\n[img]http://i.imgur.com/TnZOT5I.png[/img]\n[img]http://i.imgur.com/HZAtRTk.png[/img][/center]","torrent":{"xt":"urn:btih:67aebb6bbbec9e58baa5145c6b9db7a2d760d8ff","amp;dn":"Hero+Naam+Yaad+Rakhi+%282015%29+x264+1+CD+PDVDRip+AAC%5BHDMaN+ExCluSiv","amp;tr":["udp%3A%2F%2Ftracker.openbittorrent.com%3A80","udp%3A%2F%2Fopen.demonii.com%3A1337","udp%3A%2F%2Ftracker.coppersurfer.tk%3A6969","udp%3A%2F%2Fexodus.desync.com%3A6969"],"infoHash":"67aebb6bbbec9e58baa5145c6b9db7a2d760d8ff","infoHashBuffer":{"type":"Buffer","data":[103,174,187,107,187,236,158,88,186,165,20,92,107,157,183,162,215,96,216,255]},"announce":[],"urlList":[]}}